<svg xmlns="http://www.w3.org/2000/svg" width="18.305" height="20.22" viewBox="0 0 18.305 20.22">
  <g id="Icon_feather-box" data-name="Icon feather-box" transform="translate(-3.727 -2.226)">
    <path id="Path_1578" data-name="Path 1578" d="M21.258,16.035V8.587a1.862,1.862,0,0,0-.931-1.611L13.81,3.253a1.862,1.862,0,0,0-1.862,0L5.431,6.977A1.862,1.862,0,0,0,4.5,8.587v7.448a1.862,1.862,0,0,0,.931,1.611l6.517,3.724a1.862,1.862,0,0,0,1.862,0l6.517-3.724a1.862,1.862,0,0,0,.931-1.611Z" fill="none" stroke="#fff" stroke-linecap="round" stroke-linejoin="round" stroke-width="1.5"/>
    <path id="Path_1579" data-name="Path 1579" d="M4.905,10.44l8.128,4.7,8.128-4.7" transform="translate(-0.154 -2.821)" fill="none" stroke="#fff" stroke-linecap="round" stroke-linejoin="round" stroke-width="1.5"/>
    <path id="Path_1580" data-name="Path 1580" d="M18,27.384V18" transform="translate(-5.121 -5.689)" fill="none" stroke="#fff" stroke-linecap="round" stroke-linejoin="round" stroke-width="1.5"/>
  </g>
</svg>
